<svg xmlns="http://www.w3.org/2000/svg" viewBox="0 0 219.698 44.661">
  <defs>
    <style>
      .cls-1 {
        fill: #fff;
      }

      .cls-2 {
        fill: #d9d9d9;
      }
    </style>
  </defs>
  <g id="Symbol_1" data-name="Symbol 1" transform="translate(546.698 561.288)">
    <g id="Group_296" data-name="Group 296" transform="translate(-476.797 -549.666)">
      <path id="Path_787" data-name="Path 787" class="cls-1" d="M123.215,34.275v-1.9a7.564,7.564,0,0,1-2.341,1.645,8.946,8.946,0,0,1-3.163.506,9.849,9.849,0,0,1-3.289-.443,5.983,5.983,0,0,1-2.277-1.392,6.172,6.172,0,0,1-1.645-4.428,6.9,6.9,0,0,1,1.771-4.871,7.563,7.563,0,0,1,5.377-1.9h5.5V20.232a2.424,2.424,0,0,0-1.075-2.341,5.088,5.088,0,0,0-3.479-.949,6.605,6.605,0,0,0-2.72.443,5.234,5.234,0,0,0-1.834,1.581l-2.72-2.594a7.251,7.251,0,0,1,3.163-2.341,11.876,11.876,0,0,1,4.3-.633c5.693,0,8.54,2.4,8.54,7.148V34.465h-4.112Zm-.063-9.489h-4.871a4.3,4.3,0,0,0-2.783.759,2.7,2.7,0,0,0-.949,2.214,2.7,2.7,0,0,0,.949,2.214,4.576,4.576,0,0,0,2.91.759,10.874,10.874,0,0,0,2.151-.19,3.4,3.4,0,0,0,1.771-1.012,4.422,4.422,0,0,0,.886-3.1V24.787Z" transform="translate(-110.5 -13.21)"/>
      <path id="Path_788" data-name="Path 788" class="cls-1" d="M163.747,34.349V21.065l-4.808,9.489h-2.594l-4.871-9.489V34.412H147.3V13.6h4.112L157.674,26l6.2-12.4h4.112V34.412h-4.238Z" transform="translate(-124.021 -13.284)"/>
      <path id="Path_789" data-name="Path 789" class="cls-1" d="M195.948,30.417a6.472,6.472,0,0,1-2.151,3.1,6.238,6.238,0,0,1-3.606,1.012h-1.708v-3.8h1.075a3.244,3.244,0,0,0,1.9-.443,3.269,3.269,0,0,0,1.075-1.771l-1.2-3.289L185.7,13.4h5.124l4.3,10.374L200,13.4h4.491Z" transform="translate(-138.129 -13.21)"/>
      <path id="Path_790" data-name="Path 790" class="cls-1" d="M230.85,34.349V17.206h-6.01v6.01a30.827,30.827,0,0,1-.443,5.44,10.694,10.694,0,0,1-1.328,3.416,4.282,4.282,0,0,1-2.088,1.771,7.438,7.438,0,0,1-2.72.506H216.3V30.68h.633a5.641,5.641,0,0,0,1.392-.19,2.127,2.127,0,0,0,1.265-1.012,7.569,7.569,0,0,0,.949-2.53,22.344,22.344,0,0,0,.38-4.681V13.6h14.233V34.412h-4.3Z" transform="translate(-149.372 -13.284)"/>
      <path id="Path_791" data-name="Path 791" class="cls-1" d="M258.875,25.056a6.759,6.759,0,0,0,1.265,4.238c.822,1.075,2.214,1.581,4.175,1.581a5.87,5.87,0,0,0,2.657-.569,8.348,8.348,0,0,0,2.214-1.645l2.594,2.53a12.67,12.67,0,0,1-3.479,2.467,10.259,10.259,0,0,1-4.175.759c-3.163,0-5.5-.886-7.085-2.72-1.581-1.771-2.341-4.491-2.341-8.034a13.873,13.873,0,0,1,.633-4.428,8.639,8.639,0,0,1,1.771-3.289,7.692,7.692,0,0,1,2.783-2.088,8.653,8.653,0,0,1,3.669-.759,9.392,9.392,0,0,1,3.606.7,7.358,7.358,0,0,1,2.783,2.024,9.567,9.567,0,0,1,1.771,3.163,11.944,11.944,0,0,1,.633,4.112v1.9H258.875Zm9.362-3.416a6.934,6.934,0,0,0-.38-1.645,5.346,5.346,0,0,0-.822-1.708,4.261,4.261,0,0,0-1.392-1.2,4.343,4.343,0,0,0-2.151-.443,4.231,4.231,0,0,0-3.606,1.645A5.346,5.346,0,0,0,259.065,20a6.892,6.892,0,0,0-.316,1.645Z" transform="translate(-163.481 -13.1)"/>
      <path id="Path_792" data-name="Path 792" class="cls-1" d="M291.5,34.349V13.6h4.238v9.932l7.907-9.932h5l-8.287,9.742,8.92,11.007h-5.124l-8.413-10.754V34.349Z" transform="translate(-177.001 -13.284)"/>
      <path id="Path_793" data-name="Path 793" class="cls-1" d="M337.894,31.582a14.266,14.266,0,0,1-1.645,1.455,7.95,7.95,0,0,1-1.455.822,9.356,9.356,0,0,1-3.732.7,8.773,8.773,0,0,1-6.9-2.783c-1.645-1.9-2.467-4.491-2.467-7.907a11.481,11.481,0,0,1,2.467-7.781A8.726,8.726,0,0,1,331,13.3a9.813,9.813,0,0,1,3.732.7,7.947,7.947,0,0,1,1.455.822,13.491,13.491,0,0,1,1.645,1.455l-2.847,2.72a8.558,8.558,0,0,0-1.771-1.455A4.582,4.582,0,0,0,331,17.032a4.26,4.26,0,0,0-3.8,1.771,8.73,8.73,0,0,0-1.265,5.124c0,4.618,1.708,6.9,5.061,6.9a4.408,4.408,0,0,0,2.214-.506,11.252,11.252,0,0,0,1.771-1.455Z" transform="translate(-188.097 -13.173)"/>
    </g>
    <path id="Path_794" data-name="Path 794" class="cls-2" d="M4.618,44.661,30.744,0,62.753,44.661,0,18.978l49.848,13.98-19.1-18.851Z" transform="translate(-546.698 -561.288)"/>
    <path id="Path_795" data-name="Path 795" class="cls-1" d="M7.3,44.661,33.426,8.54V0Z" transform="translate(-549.38 -561.288)"/>
    <path id="Path_796" data-name="Path 796" class="cls-1" d="M48.6,13.5v5.567L67.7,37.918Z" transform="translate(-564.554 -566.248)"/>
    <path id="Path_797" data-name="Path 797" class="cls-1" d="M0,30,53.9,48.408l8.856,7.275" transform="translate(-546.698 -572.31)"/>
    <path id="Path_798" data-name="Path 798" class="cls-2" d="M7.3,49.621,33.426,19.067V13.5Z" transform="translate(-549.38 -566.248)"/>
  </g>
</svg>
