<svg xmlns="http://www.w3.org/2000/svg" xmlns:xlink="http://www.w3.org/1999/xlink" viewBox="0 0 175 61">
  <defs>
    <style>
      .cls-1 {
        fill: #fff;
      }

      .cls-2 {
        fill: #151515;
      }

      .cls-3 {
        fill: #c00;
      }

      .cls-4 {
        fill: none;
        stroke: #343434;
      }

      .cls-5 {
        filter: url(#Rectangle_8);
      }
    </style>
    <filter id="Rectangle_8" x="0" y="0" width="175" height="61" filterUnits="userSpaceOnUse">
      <feOffset dy="10" input="SourceAlpha"/>
      <feGaussianBlur stdDeviation="3" result="blur"/>
      <feFlood flood-color="#000" flood-opacity="0.502"/>
      <feComposite operator="in" in2="blur"/>
      <feComposite in="SourceGraphic"/>
    </filter>
  </defs>
  <g id="Group_301" data-name="Group 301" transform="translate(-74 -1915)">
    <g class="cls-5" transform="matrix(1, 0, 0, 1, 74, 1915)">
      <rect id="Rectangle_8-2" data-name="Rectangle 8" class="cls-1" width="157" height="42" rx="2" transform="translate(9)"/>
    </g>
    <path id="Path_814" data-name="Path 814" class="cls-2" d="M9.98,0,8.86-3.2H3.08L1.96,0H.12l5.1-13.92H6.74L11.84,0ZM7.02-8.62,6-11.58H5.94L4.96-8.7,3.58-4.72H8.36Zm22.3,3.11a5.978,5.978,0,0,1-.464,2.421A5.287,5.287,0,0,1,27.6-1.305a5.373,5.373,0,0,1-1.8,1.1A6.031,6.031,0,0,1,23.69.174,6.031,6.031,0,0,1,21.573-.2a5.373,5.373,0,0,1-1.8-1.1,5.287,5.287,0,0,1-1.247-1.783,5.978,5.978,0,0,1-.464-2.421v-9.164a5.978,5.978,0,0,1,.464-2.422,5.287,5.287,0,0,1,1.247-1.784,5.373,5.373,0,0,1,1.8-1.1,6.031,6.031,0,0,1,2.117-.377,6.031,6.031,0,0,1,2.117.377,5.373,5.373,0,0,1,1.8,1.1A5.287,5.287,0,0,1,28.852-17.1a5.978,5.978,0,0,1,.464,2.422ZM26.938-14.5a3.59,3.59,0,0,0-.884-2.581,3.112,3.112,0,0,0-2.364-.928,3.112,3.112,0,0,0-2.364.928,3.59,3.59,0,0,0-.884,2.581v8.816A3.59,3.59,0,0,0,21.326-3.1a3.112,3.112,0,0,0,2.364.928A3.112,3.112,0,0,0,26.054-3.1a3.59,3.59,0,0,0,.884-2.581ZM43.816-5.51a5.978,5.978,0,0,1-.464,2.421A5.287,5.287,0,0,1,42.1-1.305a5.373,5.373,0,0,1-1.8,1.1A6.031,6.031,0,0,1,38.19.174,6.031,6.031,0,0,1,36.073-.2a5.373,5.373,0,0,1-1.8-1.1,5.287,5.287,0,0,1-1.247-1.783,5.978,5.978,0,0,1-.464-2.421v-9.164a5.978,5.978,0,0,1,.464-2.422,5.287,5.287,0,0,1,1.247-1.784,5.373,5.373,0,0,1,1.8-1.1,6.031,6.031,0,0,1,2.117-.377,6.031,6.031,0,0,1,2.117.377,5.373,5.373,0,0,1,1.8,1.1A5.287,5.287,0,0,1,43.352-17.1a5.978,5.978,0,0,1,.464,2.422ZM41.438-14.5a3.59,3.59,0,0,0-.884-2.581,3.112,3.112,0,0,0-2.363-.928,3.112,3.112,0,0,0-2.364.928,3.59,3.59,0,0,0-.884,2.581v8.816A3.59,3.59,0,0,0,35.826-3.1a3.112,3.112,0,0,0,2.364.928A3.112,3.112,0,0,0,40.554-3.1a3.59,3.59,0,0,0,.884-2.581ZM69.292-2.34a6.209,6.209,0,0,1-.64,1.3,3.164,3.164,0,0,1-.72.78,2.2,2.2,0,0,1-.81.38,4.008,4.008,0,0,1-.91.1h-1.14V-1.42h.78a1.928,1.928,0,0,0,.89-.19,1.89,1.89,0,0,0,.71-.89l.16-.46L63.452-13.9h1.9l1.78,5.04,1.46,3.82h.08l1.36-3.84,1.78-5.06h1.82Zm10.3-10.04V0h-1.76V-12.38h-3.96v-1.54h9.68v1.54Z" transform="translate(99 1945)"/>
    <path id="Path_813" data-name="Path 813" class="cls-3" d="M8.671,0H6.293V-17.69L3.654-15.776,3.683-18.3l2.581-1.885H8.671Z" transform="translate(143 1945)"/>
    <path id="Path_816" data-name="Path 816" class="cls-2" d="M1.02-9.64a5.32,5.32,0,0,1,.34-2A3.667,3.667,0,0,1,2.27-13a3.676,3.676,0,0,1,1.3-.77,4.689,4.689,0,0,1,1.53-.25,4.05,4.05,0,0,1,1.42.26,3.485,3.485,0,0,1,1.24.79,4.112,4.112,0,0,1,.88,1.31,4.469,4.469,0,0,1,.34,1.8,4.991,4.991,0,0,1-.52,2.3L4.56.02H2.74L5.98-6.22l-.06-.02A1.777,1.777,0,0,1,5.29-6a3.56,3.56,0,0,1-.71.08,3.821,3.821,0,0,1-1.46-.27A3.087,3.087,0,0,1,2-6.96a3.644,3.644,0,0,1-.72-1.18A4.168,4.168,0,0,1,1.02-9.64Zm1.64-.18a2.972,2.972,0,0,0,.19,1.1,2.524,2.524,0,0,0,.5.81,2.04,2.04,0,0,0,.73.5,2.376,2.376,0,0,0,.9.17,2.3,2.3,0,0,0,.89-.17,2.062,2.062,0,0,0,.72-.5,2.394,2.394,0,0,0,.49-.81,3.12,3.12,0,0,0,.18-1.1,2.935,2.935,0,0,0-.61-1.96,2.073,2.073,0,0,0-1.67-.72,2.135,2.135,0,0,0-1.67.73A2.824,2.824,0,0,0,2.66-9.82ZM11,0V-1.64l5.4-6.82a3.169,3.169,0,0,0,.78-1.98,2.071,2.071,0,0,0-.52-1.4,2.005,2.005,0,0,0-1.6-.6,2.069,2.069,0,0,0-1.51.6,2.654,2.654,0,0,0-.75,1.56l-1.68-.24a4.274,4.274,0,0,1,.48-1.45,3.912,3.912,0,0,1,.89-1.1,3.836,3.836,0,0,1,1.2-.69A4.149,4.149,0,0,1,15.1-14a5.074,5.074,0,0,1,1.51.22,3.287,3.287,0,0,1,1.22.67A3.253,3.253,0,0,1,18.64-12a3.638,3.638,0,0,1,.3,1.52,4.131,4.131,0,0,1-.26,1.36,4.561,4.561,0,0,1-.76,1.36L13.06-1.62H18.8V0Z" transform="translate(208 1936)"/>
    <path id="Path_815" data-name="Path 815" class="cls-2" d="M6.356,0,4.494-4.284H2.3V0H1.064V-9.744H5.04a3.1,3.1,0,0,1,1.106.2,2.718,2.718,0,0,1,.9.546,2.522,2.522,0,0,1,.595.84,2.633,2.633,0,0,1,.217,1.078,2.558,2.558,0,0,1-.581,1.7,3.077,3.077,0,0,1-1.519.973L7.728,0Zm.266-7.084a1.407,1.407,0,0,0-.5-1.2,2.113,2.113,0,0,0-1.3-.378H2.3v3.3H4.76A2.014,2.014,0,0,0,6.09-5.8,1.569,1.569,0,0,0,6.622-7.084Zm9.548-2.66v6.216a4.348,4.348,0,0,1-.245,1.5,3.176,3.176,0,0,1-.7,1.141,3.078,3.078,0,0,1-1.092.721A3.873,3.873,0,0,1,12.7.084,3.66,3.66,0,0,1,11.179-.21a3.167,3.167,0,0,1-1.085-.784A3.155,3.155,0,0,1,9.45-2.142a4.531,4.531,0,0,1-.21-1.386V-9.744h1.218v6.118a3.2,3.2,0,0,0,.14.945,2.408,2.408,0,0,0,.42.8,2.143,2.143,0,0,0,.7.567,2.139,2.139,0,0,0,.994.217,2.1,2.1,0,0,0,1.631-.651,2.7,2.7,0,0,0,.6-1.883V-9.744Zm8.12,6.972a2.671,2.671,0,0,1-.259,1.2,2.628,2.628,0,0,1-.721.9A3.261,3.261,0,0,1,22.2-.112a4.84,4.84,0,0,1-1.414.2A5.755,5.755,0,0,1,19.831,0a6.467,6.467,0,0,1-.994-.252,6.175,6.175,0,0,1-.952-.413,4.36,4.36,0,0,1-.833-.581l.784-.994a4.035,4.035,0,0,0,1.358.854,4.592,4.592,0,0,0,1.652.294,3.6,3.6,0,0,0,.861-.1,2,2,0,0,0,.686-.3,1.458,1.458,0,0,0,.455-.525,1.645,1.645,0,0,0,.168-.77,1.19,1.19,0,0,0-.182-.686,1.448,1.448,0,0,0-.49-.441A3.122,3.122,0,0,0,21.63-4.2q-.406-.112-.868-.2-.574-.112-1.134-.245a3.345,3.345,0,0,1-1.008-.413,2.157,2.157,0,0,1-.728-.763,2.543,2.543,0,0,1-.28-1.281,2.583,2.583,0,0,1,.259-1.183,2.531,2.531,0,0,1,.707-.861,3.111,3.111,0,0,1,1.029-.525,4.275,4.275,0,0,1,1.239-.175,6.176,6.176,0,0,1,1.75.224,4.017,4.017,0,0,1,1.372.714l-.686,1.05a4.759,4.759,0,0,0-1.141-.574,3.945,3.945,0,0,0-1.3-.21,2.387,2.387,0,0,0-1.5.406A1.359,1.359,0,0,0,18.83-7.1a1.112,1.112,0,0,0,.175.637,1.387,1.387,0,0,0,.525.441,4.138,4.138,0,0,0,.861.315q.511.133,1.169.259.462.1.945.238a2.863,2.863,0,0,1,.882.427,2.173,2.173,0,0,1,.651.763A2.662,2.662,0,0,1,24.29-2.772Z" transform="translate(206 1950)"/>
    <line id="Line_1" data-name="Line 1" class="cls-4" y2="42" transform="translate(194.5 1915.5)"/>
  </g>
</svg>
