<svg xmlns="http://www.w3.org/2000/svg" xmlns:xlink="http://www.w3.org/1999/xlink" viewBox="0 0 91 329">
  <defs>
    <style>
      .cls-1 {
        fill: #fff;
      }

      .cls-2 {
        fill: #343434;
      }

      .cls-3 {
        fill: #c00;
      }

      .cls-4 {
        fill: #266fb9;
      }

      .cls-5 {
        fill: #bababa;
      }

      .cls-6 {
        filter: url(#Union_2);
      }
    </style>
    <filter id="Union_2" x="0" y="0" width="91" height="329" filterUnits="userSpaceOnUse">
      <feOffset dy="10" input="SourceAlpha"/>
      <feGaussianBlur stdDeviation="3" result="blur"/>
      <feFlood flood-color="#000" flood-opacity="0.502"/>
      <feComposite operator="in" in2="blur"/>
      <feComposite in="SourceGraphic"/>
    </filter>
  </defs>
  <g id="Group_320" data-name="Group 320" transform="translate(-117 -2194)">
    <g class="cls-6" transform="matrix(1, 0, 0, 1, 117, 2194)">
      <path id="Union_2-2" data-name="Union 2" class="cls-1" d="M80,295V107H90V295ZM51,107a3,3,0,0,1-3-3V-12a3,3,0,0,1,3-3h67a3,3,0,0,1,3,3V104a3,3,0,0,1-3,3Z" transform="translate(-39 15)"/>
    </g>
    <path id="Path_818" data-name="Path 818" class="cls-2" d="M8.372,0h-2.3V-17.08L3.528-15.232l.028-2.436,2.492-1.82H8.372Zm18.06-5.32a5.772,5.772,0,0,1-.448,2.338,5.1,5.1,0,0,1-1.2,1.722A5.187,5.187,0,0,1,23.044-.2,5.823,5.823,0,0,1,21,.168,5.823,5.823,0,0,1,18.956-.2,5.187,5.187,0,0,1,17.22-1.26a5.1,5.1,0,0,1-1.2-1.722,5.772,5.772,0,0,1-.448-2.338v-8.848a5.772,5.772,0,0,1,.448-2.338,5.1,5.1,0,0,1,1.2-1.722,5.187,5.187,0,0,1,1.736-1.064A5.823,5.823,0,0,1,21-19.656a5.823,5.823,0,0,1,2.044.364,5.187,5.187,0,0,1,1.736,1.064,5.1,5.1,0,0,1,1.2,1.722,5.772,5.772,0,0,1,.448,2.338ZM24.136-14a3.466,3.466,0,0,0-.854-2.492,3,3,0,0,0-2.282-.9,3,3,0,0,0-2.282.9A3.466,3.466,0,0,0,17.864-14v8.512A3.466,3.466,0,0,0,18.718-3,3,3,0,0,0,21-2.1,3,3,0,0,0,23.282-3a3.466,3.466,0,0,0,.854-2.492Zm16.3,8.68a5.772,5.772,0,0,1-.448,2.338,5.1,5.1,0,0,1-1.2,1.722A5.187,5.187,0,0,1,37.044-.2,5.823,5.823,0,0,1,35,.168,5.823,5.823,0,0,1,32.956-.2,5.187,5.187,0,0,1,31.22-1.26a5.1,5.1,0,0,1-1.2-1.722,5.772,5.772,0,0,1-.448-2.338v-8.848a5.772,5.772,0,0,1,.448-2.338,5.1,5.1,0,0,1,1.2-1.722,5.187,5.187,0,0,1,1.736-1.064A5.823,5.823,0,0,1,35-19.656a5.823,5.823,0,0,1,2.044.364,5.187,5.187,0,0,1,1.736,1.064,5.1,5.1,0,0,1,1.2,1.722,5.772,5.772,0,0,1,.448,2.338ZM38.136-14a3.466,3.466,0,0,0-.854-2.492,3,3,0,0,0-2.282-.9,3,3,0,0,0-2.282.9A3.466,3.466,0,0,0,31.864-14v8.512A3.466,3.466,0,0,0,32.718-3,3,3,0,0,0,35-2.1,3,3,0,0,0,37.282-3a3.466,3.466,0,0,0,.854-2.492Z" transform="translate(135 2251)"/>
    <path id="Path_817" data-name="Path 817" class="cls-3" d="M-2.464-2.968V0H-4.732V-2.968h-8.456v-2.24L-6.5-19.488h2.548L-10.724-5.124h5.992v-5.74h2.268v5.74H-.84v2.156Z" transform="translate(191 2251)"/>
    <rect id="Rectangle_10" data-name="Rectangle 10" class="cls-4" width="24" height="24" rx="3" transform="translate(131 2199)"/>
    <path id="Path_819" data-name="Path 819" class="cls-1" d="M16.828-13.216A5.6,5.6,0,0,1,16.3-10.78a6.026,6.026,0,0,1-1.442,1.932,6.728,6.728,0,0,1-2.142,1.274,7.434,7.434,0,0,1-2.632.462H6.272V0H1.96V-19.488H10a8.556,8.556,0,0,1,2.8.434,6.146,6.146,0,0,1,2.156,1.246,5.519,5.519,0,0,1,1.386,1.974A6.679,6.679,0,0,1,16.828-13.216ZM12.46-13.3a2.131,2.131,0,0,0-.7-1.75,3.058,3.058,0,0,0-1.988-.574h-3.5v4.648H9.884a2.75,2.75,0,0,0,1.82-.63A2.091,2.091,0,0,0,12.46-13.3Z" transform="translate(134 2223)"/>
    <path id="Union_1" data-name="Union 1" class="cls-5" d="M44.773,5.878l.026-.028A14.71,14.71,0,0,1,43-1.223,14.777,14.777,0,0,1,57.777-16,14.777,14.777,0,0,1,72.554-1.223a14.713,14.713,0,0,1-3.068,9.015L57.474,26.437Z" transform="translate(105 2277.72)"/>
  </g>
</svg>
