<svg xmlns="http://www.w3.org/2000/svg" xmlns:xlink="http://www.w3.org/1999/xlink" viewBox="0 0 130 131">
  <defs>
    <style>
      .cls-1 {
        fill: #fff;
      }

      .cls-2, .cls-5 {
        fill: none;
      }

      .cls-2 {
        stroke: #c00;
        stroke-width: 9px;
      }

      .cls-3 {
        fill: #343434;
      }

      .cls-4 {
        stroke: none;
      }

      .cls-6 {
        filter: url(#Ellipse_18);
      }
    </style>
    <filter id="Ellipse_18" x="0" y="0" width="130" height="131" filterUnits="userSpaceOnUse">
      <feOffset dy="10" input="SourceAlpha"/>
      <feGaussianBlur stdDeviation="3" result="blur"/>
      <feFlood flood-color="#000" flood-opacity="0.502"/>
      <feComposite operator="in" in2="blur"/>
      <feComposite in="SourceGraphic"/>
    </filter>
  </defs>
  <g id="speed90" transform="translate(-330 -3785)">
    <g class="cls-6" transform="matrix(1, 0, 0, 1, 330, 3785)">
      <circle id="Ellipse_18-2" data-name="Ellipse 18" class="cls-1" cx="56" cy="56" r="56" transform="translate(9)"/>
    </g>
    <g id="Ellipse_19" data-name="Ellipse 19" class="cls-2" transform="translate(345 3791)">
      <circle class="cls-4" cx="50" cy="50" r="50"/>
      <circle class="cls-5" cx="50" cy="50" r="45.5"/>
    </g>
    <path id="Path_812" data-name="Path 812" class="cls-3" d="M35.42,12.218a10.446,10.446,0,0,1,.84-4.389A8.5,8.5,0,0,1,41.573,3.1a11.806,11.806,0,0,1,3.549-.546,9.741,9.741,0,0,1,3.381.609,8.638,8.638,0,0,1,5,4.683,9.507,9.507,0,0,1,.777,3.948,11.423,11.423,0,0,1-.294,2.6A9.22,9.22,0,0,1,53.06,16.8L44.954,32h-6.93l6.09-11.466-.042-.084a8.512,8.512,0,0,1-3.633-.336,6.928,6.928,0,0,1-2.73-1.659,7.35,7.35,0,0,1-1.7-2.73A10.187,10.187,0,0,1,35.42,12.218Zm6.216-.336a3.533,3.533,0,0,0,.924,2.73,3.193,3.193,0,0,0,2.226.84,3.292,3.292,0,0,0,2.226-.84,3.443,3.443,0,0,0,.966-2.73A3.56,3.56,0,0,0,47.1,9.173a3.259,3.259,0,0,0-2.31-.819,3.391,3.391,0,0,0-1.071.189,2.731,2.731,0,0,0-1.029.63,3.4,3.4,0,0,0-.756,1.113A3.961,3.961,0,0,0,41.636,11.882Zm35.616,11.55a8.621,8.621,0,0,1-.777,3.738A8.175,8.175,0,0,1,74.4,29.921a9.24,9.24,0,0,1-2.982,1.7,10.477,10.477,0,0,1-3.486.588,10.354,10.354,0,0,1-3.444-.588,9,9,0,0,1-2.961-1.7,8.306,8.306,0,0,1-2.058-2.751,8.621,8.621,0,0,1-.777-3.738V11.378a8.449,8.449,0,0,1,2.835-6.51,8.806,8.806,0,0,1,2.961-1.722,10.354,10.354,0,0,1,3.444-.588,10.477,10.477,0,0,1,3.486.588A9.04,9.04,0,0,1,74.4,4.868,8.4,8.4,0,0,1,76.475,7.64a8.621,8.621,0,0,1,.777,3.738ZM71.036,11.378a3.167,3.167,0,0,0-.861-2.436,3.174,3.174,0,0,0-2.247-.8,3.1,3.1,0,0,0-2.226.8,3.213,3.213,0,0,0-.84,2.436V23.39a3.213,3.213,0,0,0,.84,2.436,3.1,3.1,0,0,0,2.226.8,2.887,2.887,0,0,0,3.108-3.234Z" transform="translate(339 3822)"/>
  </g>
</svg>
