<svg xmlns="http://www.w3.org/2000/svg" xmlns:xlink="http://www.w3.org/1999/xlink" viewBox="0 0 130 131">
  <defs>
    <style>
      .cls-1 {
        fill: #fff;
      }

      .cls-2, .cls-5 {
        fill: none;
      }

      .cls-2 {
        stroke: #c00;
        stroke-width: 9px;
      }

      .cls-3 {
        fill: #343434;
      }

      .cls-4 {
        stroke: none;
      }

      .cls-6 {
        filter: url(#Ellipse_16);
      }
    </style>
    <filter id="Ellipse_16" x="0" y="0" width="130" height="131" filterUnits="userSpaceOnUse">
      <feOffset dy="10" input="SourceAlpha"/>
      <feGaussianBlur stdDeviation="3" result="blur"/>
      <feFlood flood-color="#000" flood-opacity="0.502"/>
      <feComposite operator="in" in2="blur"/>
      <feComposite in="SourceGraphic"/>
    </filter>
  </defs>
  <g id="speed60" transform="translate(-202 -3785)">
    <g class="cls-6" transform="matrix(1, 0, 0, 1, 202, 3785)">
      <circle id="Ellipse_16-2" data-name="Ellipse 16" class="cls-1" cx="56" cy="56" r="56" transform="translate(9)"/>
    </g>
    <g id="Ellipse_17" data-name="Ellipse 17" class="cls-2" transform="translate(217 3791)">
      <circle class="cls-4" cx="50" cy="50" r="50"/>
      <circle class="cls-5" cx="50" cy="50" r="45.5"/>
    </g>
    <path id="Path_811" data-name="Path 811" class="cls-3" d="M54.278,22.55a10.446,10.446,0,0,1-.84,4.389,8.553,8.553,0,0,1-2.226,3,8.9,8.9,0,0,1-3.129,1.722,11.806,11.806,0,0,1-3.549.546,9.569,9.569,0,0,1-3.36-.609A8.683,8.683,0,0,1,36.2,26.918a9.507,9.507,0,0,1-.777-3.948,11.423,11.423,0,0,1,.294-2.6,10.229,10.229,0,0,1,.882-2.394L44.7,2.768h6.93l-6.09,11.466.042.084a8.512,8.512,0,0,1,3.633.336,7.11,7.11,0,0,1,2.751,1.659,7.217,7.217,0,0,1,1.722,2.73A10.187,10.187,0,0,1,54.278,22.55Zm-6.342.336a3.486,3.486,0,0,0-.945-2.73,3.269,3.269,0,0,0-2.247-.84,3.215,3.215,0,0,0-2.205.84,3.486,3.486,0,0,0-.945,2.73,3.614,3.614,0,0,0,.861,2.709,3.184,3.184,0,0,0,2.289.819,3.507,3.507,0,0,0,1.113-.189,2.731,2.731,0,0,0,1.029-.63,3.452,3.452,0,0,0,.756-1.092A3.928,3.928,0,0,0,47.936,22.886Zm29.316.546a8.621,8.621,0,0,1-.777,3.738A8.175,8.175,0,0,1,74.4,29.921a9.24,9.24,0,0,1-2.982,1.7,10.477,10.477,0,0,1-3.486.588,10.354,10.354,0,0,1-3.444-.588,9,9,0,0,1-2.961-1.7,8.306,8.306,0,0,1-2.058-2.751,8.621,8.621,0,0,1-.777-3.738V11.378a8.449,8.449,0,0,1,2.835-6.51,8.806,8.806,0,0,1,2.961-1.722,10.354,10.354,0,0,1,3.444-.588,10.477,10.477,0,0,1,3.486.588A9.04,9.04,0,0,1,74.4,4.868,8.4,8.4,0,0,1,76.475,7.64a8.621,8.621,0,0,1,.777,3.738ZM71.036,11.378a3.167,3.167,0,0,0-.861-2.436,3.174,3.174,0,0,0-2.247-.8,3.1,3.1,0,0,0-2.226.8,3.213,3.213,0,0,0-.84,2.436V23.39a3.213,3.213,0,0,0,.84,2.436,3.1,3.1,0,0,0,2.226.8,2.887,2.887,0,0,0,3.108-3.234Z" transform="translate(211 3822)"/>
  </g>
</svg>
